<svg xmlns="http://www.w3.org/2000/svg" viewBox="0 0 24 24" width="24" height="24">
  <linearGradient id="g" x1="0" x2="1" y1="0" y2="1">
    <stop offset="0" stop-color="#f58529"/>
    <stop offset="0.5" stop-color="#dd2a7b"/>
    <stop offset="1" stop-color="#8134af"/>
  </linearGradient>
  <path d="M7 2h10a5 5 0 0 1 5 5v10a5 5 0 0 1-5 5H7a5 5 0 0 1-5-5V7a5 5 0 0 1 5-5z" fill="url(#g)"/>
  <path d="M12 7.5a4.5 4.5 0 1 0 0 9 4.5 4.5 0 0 0 0-9zm0 7.4a2.9 2.9 0 1 1 0-5.8 2.9 2.9 0 0 1 0 5.8z" fill="#fff"/>
  <circle cx="17.6" cy="6.4" r="0.9" fill="#fff"/>
</svg>